<svg width="117" height="43" viewBox="0 0 117 43" fill="none" xmlns="http://www.w3.org/2000/svg">
<rect x="3.67896" y="5.05884" width="42.3211" height="37.9412" rx="6.96951" fill="#6C5FBC"/>
<rect x="1.0075" y="1.0075" width="40.3061" height="35.9262" rx="5.96201" fill="#DBD9EE" stroke="#6C5FBC" stroke-width="2.01499"/>
<path d="M32.6655 11.7695L9.73482 11.6689" stroke="#6C5FBC" stroke-width="2.08432" stroke-linecap="round" stroke-linejoin="round"/>
<path d="M32.6505 16.3244L27.551 16.3025C25.4418 16.2934 23.736 14.245 23.7439 11.7305C23.7519 9.21603 25.4705 7.18222 27.5798 7.19126L32.6793 7.21313" stroke="#6C5FBC" stroke-width="2.08432" stroke-linecap="round" stroke-linejoin="round"/>
<path d="M17.3834 26.3438L10.7208 26.2707C10.1749 26.2683 9.71752 25.7339 9.70716 25.083L9.66291 23.367C9.65264 22.6865 10.1135 22.1116 10.6843 22.1141L17.2724 22.1869L17.3834 26.3438Z" stroke="#6C5FBC" stroke-width="2.08432" stroke-linecap="round" stroke-linejoin="round"/>
<path d="M27.8486 28.8158L18.4311 28.7014C17.8851 28.6991 17.4277 28.1646 17.4174 27.5137L17.2978 22.1728L32.5965 22.3568L32.6067 23.0373C32.6834 26.2625 30.541 28.8569 27.8486 28.8158Z" stroke="#6C5FBC" stroke-width="2.08432" stroke-linecap="round" stroke-linejoin="round"/>
<path d="M72.848 22.642C72.848 23.082 72.8187 23.478 72.76 23.83H63.85C63.9233 24.71 64.2313 25.3993 64.774 25.898C65.3167 26.3967 65.984 26.646 66.776 26.646C67.92 26.646 68.734 26.1547 69.218 25.172H72.54C72.188 26.3453 71.5133 27.3133 70.516 28.076C69.5187 28.824 68.294 29.198 66.842 29.198C65.6687 29.198 64.6127 28.9413 63.674 28.428C62.75 27.9 62.024 27.1593 61.496 26.206C60.9827 25.2527 60.726 24.1527 60.726 22.906C60.726 21.6447 60.9827 20.5373 61.496 19.584C62.0093 18.6307 62.728 17.8973 63.652 17.384C64.576 16.8707 65.6393 16.614 66.842 16.614C68.0007 16.614 69.0347 16.8633 69.944 17.362C70.868 17.8607 71.5793 18.572 72.078 19.496C72.5913 20.4053 72.848 21.454 72.848 22.642ZM69.658 21.762C69.6433 20.97 69.3573 20.3393 68.8 19.87C68.2427 19.386 67.5607 19.144 66.754 19.144C65.9913 19.144 65.346 19.3787 64.818 19.848C64.3047 20.3027 63.9893 20.9407 63.872 21.762H69.658ZM74.3041 22.862C74.3041 21.63 74.5461 20.5373 75.0301 19.584C75.5288 18.6307 76.1961 17.8973 77.0321 17.384C77.8828 16.8707 78.8288 16.614 79.8701 16.614C80.7795 16.614 81.5715 16.7973 82.2461 17.164C82.9355 17.5307 83.4855 17.9927 83.8961 18.55V16.812H86.9981V29H83.8961V27.218C83.5001 27.79 82.9501 28.2667 82.2461 28.648C81.5568 29.0147 80.7575 29.198 79.8481 29.198C78.8215 29.198 77.8828 28.934 77.0321 28.406C76.1961 27.878 75.5288 27.1373 75.0301 26.184C74.5461 25.216 74.3041 24.1087 74.3041 22.862ZM83.8961 22.906C83.8961 22.158 83.7495 21.52 83.4561 20.992C83.1628 20.4493 82.7668 20.0387 82.2681 19.76C81.7695 19.4667 81.2341 19.32 80.6621 19.32C80.0901 19.32 79.5621 19.4593 79.0781 19.738C78.5941 20.0167 78.1981 20.4273 77.8901 20.97C77.5968 21.498 77.4501 22.1287 77.4501 22.862C77.4501 23.5953 77.5968 24.2407 77.8901 24.798C78.1981 25.3407 78.5941 25.7587 79.0781 26.052C79.5768 26.3453 80.1048 26.492 80.6621 26.492C81.2341 26.492 81.7695 26.3527 82.2681 26.074C82.7668 25.7807 83.1628 25.37 83.4561 24.842C83.7495 24.2993 83.8961 23.654 83.8961 22.906ZM93.5923 19.342V25.238C93.5923 25.6487 93.6876 25.9493 93.8783 26.14C94.0836 26.316 94.4209 26.404 94.8903 26.404H96.3203V29H94.3843C91.7883 29 90.4903 27.7387 90.4903 25.216V19.342H89.0383V16.812H90.4903V13.798H93.5923V16.812H96.3203V19.342H93.5923ZM101.616 12.72V29H98.5356V12.72H101.616ZM116.319 16.812L108.773 34.764H105.495L108.135 28.692L103.251 16.812H106.705L109.851 25.326L113.041 16.812H116.319Z" fill="#6C5FBC"/>
</svg>
